<svg width="115" height="19" viewBox="0 0 115 19" fill="none" xmlns="http://www.w3.org/2000/svg">
<path d="M10.776 18L9.6 13.752H4.632L3.48 18H0.312L5.016 1.248H9.384L14.112 18H10.776ZM7.224 4.344H7.032L5.184 11.184H9.072L7.224 4.344ZM22.0226 18.288C19.8306 18.288 18.2066 17.536 17.1506 16.032C16.1106 14.528 15.5906 12.392 15.5906 9.624C15.5906 6.872 16.1106 4.744 17.1506 3.24C18.2066 1.72 19.8306 0.959999 22.0226 0.959999C22.8546 0.959999 23.5826 1.072 24.2066 1.296C24.8466 1.52 25.3986 1.832 25.8626 2.232C26.3266 2.616 26.7106 3.088 27.0146 3.648C27.3186 4.192 27.5586 4.792 27.7346 5.448L24.8546 6.264C24.7426 5.88 24.6146 5.52 24.4706 5.184C24.3266 4.848 24.1426 4.56 23.9186 4.32C23.7106 4.064 23.4466 3.872 23.1266 3.744C22.8066 3.6 22.4226 3.528 21.9746 3.528C20.8866 3.528 20.1026 3.944 19.6226 4.776C19.1586 5.608 18.9266 6.744 18.9266 8.184V11.064C18.9266 12.504 19.1586 13.64 19.6226 14.472C20.1026 15.304 20.8866 15.72 21.9746 15.72C22.4226 15.72 22.8066 15.656 23.1266 15.528C23.4466 15.384 23.7106 15.192 23.9186 14.952C24.1426 14.696 24.3266 14.4 24.4706 14.064C24.6146 13.728 24.7426 13.368 24.8546 12.984L27.7346 13.8C27.5586 14.456 27.3186 15.064 27.0146 15.624C26.7106 16.168 26.3266 16.64 25.8626 17.04C25.3986 17.424 24.8466 17.728 24.2066 17.952C23.5826 18.176 22.8546 18.288 22.0226 18.288ZM36.4133 18.288C34.2213 18.288 32.5973 17.536 31.5413 16.032C30.5013 14.528 29.9813 12.392 29.9813 9.624C29.9813 6.872 30.5013 4.744 31.5413 3.24C32.5973 1.72 34.2213 0.959999 36.4133 0.959999C37.2453 0.959999 37.9733 1.072 38.5973 1.296C39.2373 1.52 39.7893 1.832 40.2533 2.232C40.7173 2.616 41.1013 3.088 41.4053 3.648C41.7093 4.192 41.9493 4.792 42.1253 5.448L39.2453 6.264C39.1333 5.88 39.0053 5.52 38.8613 5.184C38.7173 4.848 38.5333 4.56 38.3093 4.32C38.1013 4.064 37.8373 3.872 37.5173 3.744C37.1973 3.6 36.8133 3.528 36.3653 3.528C35.2773 3.528 34.4933 3.944 34.0133 4.776C33.5493 5.608 33.3173 6.744 33.3173 8.184V11.064C33.3173 12.504 33.5493 13.64 34.0133 14.472C34.4933 15.304 35.2773 15.72 36.3653 15.72C36.8133 15.72 37.1973 15.656 37.5173 15.528C37.8373 15.384 38.1013 15.192 38.3093 14.952C38.5333 14.696 38.7173 14.4 38.8613 14.064C39.0053 13.728 39.1333 13.368 39.2453 12.984L42.1253 13.8C41.9493 14.456 41.7093 15.064 41.4053 15.624C41.1013 16.168 40.7173 16.64 40.2533 17.04C39.7893 17.424 39.2373 17.728 38.5973 17.952C37.9733 18.176 37.2453 18.288 36.4133 18.288ZM45.1639 18V1.248H55.7479V3.84H48.3079V8.208H55.4839V10.8H48.3079V15.408H55.7479V18H45.1639ZM59.4825 18V1.248H65.8425C67.4745 1.248 68.7225 1.712 69.5865 2.64C70.4505 3.568 70.8825 4.832 70.8825 6.432C70.8825 8.032 70.4505 9.296 69.5865 10.224C68.7225 11.152 67.4745 11.616 65.8425 11.616H62.6265V18H59.4825ZM62.6265 9.048H65.1945C66.0425 9.048 66.6505 8.88 67.0185 8.544C67.3865 8.192 67.5705 7.64 67.5705 6.888V5.976C67.5705 5.224 67.3865 4.68 67.0185 4.344C66.6505 3.992 66.0425 3.816 65.1945 3.816H62.6265V9.048ZM80.7131 3.84V18H77.5931V3.84H72.5531V1.248H85.7531V3.84H80.7131ZM88.3358 18V1.248H98.9198V3.84H91.4798V8.208H98.6558V10.8H91.4798V15.408H98.9198V18H88.3358ZM102.486 1.248H107.694C109.87 1.248 111.486 1.968 112.542 3.408C113.614 4.848 114.15 6.92 114.15 9.624C114.15 12.344 113.614 14.424 112.542 15.864C111.486 17.288 109.87 18 107.694 18H102.486V1.248ZM107.478 15.48C108.63 15.48 109.478 15.104 110.022 14.352C110.582 13.6 110.862 12.504 110.862 11.064V8.16C110.862 6.736 110.582 5.648 110.022 4.896C109.478 4.144 108.63 3.768 107.478 3.768H105.582V15.48H107.478Z" fill="#8EFF71"/>
</svg>
