<svg width="50" height="50" viewBox="0 0 50 50" fill="none" xmlns="http://www.w3.org/2000/svg">
<path d="M25 43.75C29.9728 43.75 34.7419 41.7746 38.2582 38.2582C41.7746 34.7419 43.75 29.9728 43.75 25C43.75 20.0272 41.7746 15.2581 38.2582 11.7417C34.7419 8.22544 29.9728 6.25 25 6.25C20.0272 6.25 15.2581 8.22544 11.7417 11.7417C8.22544 15.2581 6.25 20.0272 6.25 25C6.25 29.9728 8.22544 34.7419 11.7417 38.2582C15.2581 41.7746 20.0272 43.75 25 43.75Z" stroke="#FF7171" stroke-width="3" stroke-linecap="round" stroke-linejoin="round"/>
<path d="M17.708 17.7084L32.2913 32.2917" stroke="#FF7171" stroke-width="3" stroke-linecap="round" stroke-linejoin="round"/>
<path d="M17.708 32.2917L32.2913 17.7084" stroke="#FF7171" stroke-width="3" stroke-linecap="round" stroke-linejoin="round"/>
</svg>
