<svg width="70" height="70" viewBox="0 0 70 70" fill="none" xmlns="http://www.w3.org/2000/svg">
<path d="M32.0832 14.5834V29.1667C32.0832 29.9403 31.7759 30.6822 31.2289 31.2291C30.6819 31.7761 29.9401 32.0834 29.1665 32.0834H14.5832C13.8096 32.0834 13.0678 31.7761 12.5208 31.2291C11.9738 30.6822 11.6665 29.9403 11.6665 29.1667V14.5834C11.6665 13.8099 11.9738 13.068 12.5208 12.521C13.0678 11.974 13.8096 11.6667 14.5832 11.6667H29.1665C29.9401 11.6667 30.6819 11.974 31.2289 12.521C31.7759 13.068 32.0832 13.8099 32.0832 14.5834Z" stroke="black" stroke-width="3" stroke-linecap="round" stroke-linejoin="round"/>
<path d="M43.7499 11.6667H43.7207" stroke="black" stroke-width="5" stroke-linecap="round" stroke-linejoin="round"/>
<path d="M58.3334 11.6667H58.3042" stroke="black" stroke-width="5" stroke-linecap="round" stroke-linejoin="round"/>
<path d="M58.3334 26.25H58.3042" stroke="black" stroke-width="5" stroke-linecap="round" stroke-linejoin="round"/>
<path d="M58.3334 43.75H58.3042" stroke="black" stroke-width="5" stroke-linecap="round" stroke-linejoin="round"/>
<path d="M11.6669 43.75H11.6377" stroke="black" stroke-width="5" stroke-linecap="round" stroke-linejoin="round"/>
<path d="M58.3334 58.3333H58.3042" stroke="black" stroke-width="5" stroke-linecap="round" stroke-linejoin="round"/>
<path d="M43.7499 58.3333H43.7207" stroke="black" stroke-width="5" stroke-linecap="round" stroke-linejoin="round"/>
<path d="M26.2499 58.3333H26.2207" stroke="black" stroke-width="5" stroke-linecap="round" stroke-linejoin="round"/>
<path d="M11.6669 58.3333H11.6377" stroke="black" stroke-width="5" stroke-linecap="round" stroke-linejoin="round"/>
</svg>
