<svg width="34" height="34" viewBox="0 0 34 34" fill="none" xmlns="http://www.w3.org/2000/svg">
<path d="M3.68371 2H7.05113C7.49768 2 7.92594 2.17739 8.24169 2.49314C8.55745 2.80889 8.73484 3.23714 8.73484 3.68367V7.05102C8.73484 7.49756 8.55745 7.92581 8.24169 8.24156C7.92594 8.55731 7.49768 8.73469 7.05113 8.73469H3.68371C3.23716 8.73469 2.8089 8.55731 2.49315 8.24156C2.17739 7.92581 2 7.49756 2 7.05102V3.68367C2 3.23714 2.17739 2.80889 2.49315 2.49314C2.8089 2.17739 3.23716 2 3.68371 2Z" stroke="#1D1B1B" stroke-width="3" stroke-linecap="round" stroke-linejoin="round"/>
<path d="M26.9493 2H30.3168C30.7633 2 31.1916 2.17739 31.5073 2.49314C31.8231 2.80889 32.0005 3.23714 32.0005 3.68367V7.05102C32.0005 7.49756 31.8231 7.92581 31.5073 8.24156C31.1916 8.55731 30.7633 8.73469 30.3168 8.73469H26.9493C26.5028 8.73469 26.0745 8.55731 25.7588 8.24156C25.443 7.92581 25.2656 7.49756 25.2656 7.05102V3.68367C25.2656 3.23714 25.443 2.80889 25.7588 2.49314C26.0745 2.17739 26.5028 2 26.9493 2Z" stroke="#1D1B1B" stroke-width="3" stroke-linecap="round" stroke-linejoin="round"/>
<path d="M15.3165 2H18.6839C19.1305 2 19.5587 2.17739 19.8745 2.49314C20.1903 2.80889 20.3677 3.23714 20.3677 3.68367V7.05102C20.3677 7.49756 20.1903 7.92581 19.8745 8.24156C19.5587 8.55731 19.1305 8.73469 18.6839 8.73469H15.3165C14.87 8.73469 14.4417 8.55731 14.126 8.24156C13.8102 7.92581 13.6328 7.49756 13.6328 7.05102V3.68367C13.6328 3.23714 13.8102 2.80889 14.126 2.49314C14.4417 2.17739 14.87 2 15.3165 2Z" stroke="#1D1B1B" stroke-width="3" stroke-linecap="round" stroke-linejoin="round"/>
<path d="M3.68371 13.6328H7.05113C7.49768 13.6328 7.92594 13.8102 8.24169 14.1259C8.55745 14.4417 8.73484 14.8699 8.73484 15.3165V18.6838C8.73484 19.1304 8.55745 19.5586 8.24169 19.8744C7.92594 20.1901 7.49768 20.3675 7.05113 20.3675H3.68371C3.23716 20.3675 2.8089 20.1901 2.49315 19.8744C2.17739 19.5586 2 19.1304 2 18.6838V15.3165C2 14.8699 2.17739 14.4417 2.49315 14.1259C2.8089 13.8102 3.23716 13.6328 3.68371 13.6328Z" stroke="#1D1B1B" stroke-width="3" stroke-linecap="round" stroke-linejoin="round"/>
<path d="M26.9493 13.6328H30.3168C30.7633 13.6328 31.1916 13.8102 31.5073 14.1259C31.8231 14.4417 32.0005 14.8699 32.0005 15.3165V18.6838C32.0005 19.1304 31.8231 19.5586 31.5073 19.8744C31.1916 20.1901 30.7633 20.3675 30.3168 20.3675H26.9493C26.5028 20.3675 26.0745 20.1901 25.7588 19.8744C25.443 19.5586 25.2656 19.1304 25.2656 18.6838V15.3165C25.2656 14.8699 25.443 14.4417 25.7588 14.1259C26.0745 13.8102 26.5028 13.6328 26.9493 13.6328Z" stroke="#1D1B1B" stroke-width="3" stroke-linecap="round" stroke-linejoin="round"/>
<path d="M15.3165 13.6328H18.6839C19.1305 13.6328 19.5587 13.8102 19.8745 14.1259C20.1903 14.4417 20.3677 14.8699 20.3677 15.3165V18.6838C20.3677 19.1304 20.1903 19.5586 19.8745 19.8744C19.5587 20.1901 19.1305 20.3675 18.6839 20.3675H15.3165C14.87 20.3675 14.4417 20.1901 14.126 19.8744C13.8102 19.5586 13.6328 19.1304 13.6328 18.6838V15.3165C13.6328 14.8699 13.8102 14.4417 14.126 14.1259C14.4417 13.8102 14.87 13.6328 15.3165 13.6328Z" stroke="#1D1B1B" stroke-width="3" stroke-linecap="round" stroke-linejoin="round"/>
<path d="M15.3165 25.2656H18.6839C19.1305 25.2656 19.5587 25.443 19.8745 25.7588C20.1903 26.0745 20.3677 26.5028 20.3677 26.9493V30.3166C20.3677 30.7632 20.1903 31.1914 19.8745 31.5072C19.5587 31.8229 19.1305 32.0003 18.6839 32.0003H15.3165C14.87 32.0003 14.4417 31.8229 14.126 31.5072C13.8102 31.1914 13.6328 30.7632 13.6328 30.3166V26.9493C13.6328 26.5028 13.8102 26.0745 14.126 25.7588C14.4417 25.443 14.87 25.2656 15.3165 25.2656Z" stroke="#1D1B1B" stroke-width="3" stroke-linecap="round" stroke-linejoin="round"/>
</svg>
