<svg width="99" height="19" viewBox="0 0 99 19" fill="none" xmlns="http://www.w3.org/2000/svg">
<path d="M0.92 18V1.248H7.28C8.912 1.248 10.16 1.712 11.024 2.64C11.888 3.568 12.32 4.832 12.32 6.432C12.32 8.032 11.888 9.296 11.024 10.224C10.16 11.152 8.912 11.616 7.28 11.616H4.064V18H0.92ZM4.064 9.048H6.632C7.48 9.048 8.088 8.88 8.456 8.544C8.824 8.192 9.008 7.64 9.008 6.888V5.976C9.008 5.224 8.824 4.68 8.456 4.344C8.088 3.992 7.48 3.816 6.632 3.816H4.064V9.048ZM15.3826 18V1.248H25.9666V3.84H18.5266V8.208H25.7026V10.8H18.5266V15.408H25.9666V18H15.3826ZM32.3173 5.976H32.0773V18H29.3893V1.248H33.2533L37.6453 13.272H37.8853V1.248H40.5733V18H36.7093L32.3173 5.976ZM43.9239 1.248H49.1319C51.3079 1.248 52.9239 1.968 53.9799 3.408C55.0519 4.848 55.5879 6.92 55.5879 9.624C55.5879 12.344 55.0519 14.424 53.9799 15.864C52.9239 17.288 51.3079 18 49.1319 18H43.9239V1.248ZM48.9159 15.48C50.0679 15.48 50.9159 15.104 51.4599 14.352C52.0199 13.6 52.2999 12.504 52.2999 11.064V8.16C52.2999 6.736 52.0199 5.648 51.4599 4.896C50.9159 4.144 50.0679 3.768 48.9159 3.768H47.0199V15.48H48.9159ZM58.4345 18V15.648H62.2025V3.6H58.4345V1.248H69.0905V3.6H65.3225V15.648H69.0905V18H58.4345ZM75.4891 5.976H75.2491V18H72.5611V1.248H76.4251L80.8171 13.272H81.0571V1.248H83.7451V18H79.8811L75.4891 5.976ZM95.4478 15.672H95.2558C95.1118 16.008 94.9358 16.336 94.7278 16.656C94.5198 16.976 94.2638 17.256 93.9598 17.496C93.6558 17.736 93.2958 17.928 92.8798 18.072C92.4798 18.216 92.0158 18.288 91.4878 18.288C89.7918 18.288 88.5038 17.544 87.6238 16.056C86.7598 14.552 86.3278 12.448 86.3278 9.744C86.3278 6.896 86.8398 4.72 87.8638 3.216C88.8878 1.712 90.4638 0.959999 92.5918 0.959999C93.4238 0.959999 94.1518 1.072 94.7758 1.296C95.4158 1.52 95.9598 1.832 96.4078 2.232C96.8718 2.632 97.2478 3.112 97.5358 3.672C97.8398 4.216 98.0798 4.808 98.2558 5.448L95.3758 6.264C95.2638 5.912 95.1358 5.568 94.9918 5.232C94.8638 4.896 94.6878 4.608 94.4638 4.368C94.2558 4.112 93.9998 3.912 93.6958 3.768C93.3918 3.608 93.0158 3.528 92.5678 3.528C91.5278 3.528 90.7838 3.944 90.3358 4.776C89.8878 5.608 89.6638 6.744 89.6638 8.184V10.872C89.6638 11.592 89.7118 12.256 89.8078 12.864C89.9198 13.456 90.0958 13.968 90.3358 14.4C90.5758 14.832 90.8878 15.168 91.2718 15.408C91.6558 15.632 92.1358 15.744 92.7118 15.744C93.6078 15.744 94.2878 15.48 94.7518 14.952C95.2158 14.408 95.4478 13.72 95.4478 12.888V11.52H92.3997V9.24H98.2558V18H95.4478V15.672Z" fill="#FFE142"/>
</svg>
