<svg width="50" height="50" viewBox="0 0 50 50" fill="none" xmlns="http://www.w3.org/2000/svg">
<path d="M6.25 43.75H43.75" stroke="#1D1B1B" stroke-width="4" stroke-linecap="round" stroke-linejoin="round"/>
<path d="M39.582 43.7503V35.417" stroke="#1D1B1B" stroke-width="4" stroke-linecap="round" stroke-linejoin="round"/>
<path d="M39.5846 35.417C40.6897 35.417 41.7495 34.978 42.5309 34.1966C43.3123 33.4152 43.7513 32.3554 43.7513 31.2503V27.0837C43.7513 25.9786 43.3123 24.9188 42.5309 24.1374C41.7495 23.356 40.6897 22.917 39.5846 22.917C38.4796 22.917 37.4198 23.356 36.6384 24.1374C35.857 24.9188 35.418 25.9786 35.418 27.0837V31.2503C35.418 32.3554 35.857 33.4152 36.6384 34.1966C37.4198 34.978 38.4796 35.417 39.5846 35.417Z" stroke="#1D1B1B" stroke-width="4" stroke-linecap="round" stroke-linejoin="round"/>
<path d="M29.1654 43.7497V14.583C29.1654 12.9254 28.5069 11.3357 27.3348 10.1636C26.1627 8.99149 24.573 8.33301 22.9154 8.33301H14.582C12.9244 8.33301 11.3347 8.99149 10.1626 10.1636C8.99051 11.3357 8.33203 12.9254 8.33203 14.583V43.7497" stroke="#1D1B1B" stroke-width="4" stroke-linecap="round" stroke-linejoin="round"/>
<path d="M18.75 35.417V43.7503" stroke="#1D1B1B" stroke-width="4" stroke-linecap="round" stroke-linejoin="round"/>
<path d="M16.668 27.083H20.8346" stroke="#1D1B1B" stroke-width="4" stroke-linecap="round" stroke-linejoin="round"/>
<path d="M16.668 18.75H20.8346" stroke="#1D1B1B" stroke-width="4" stroke-linecap="round" stroke-linejoin="round"/>
</svg>
