<svg width="44" height="43" viewBox="0 0 44 43" fill="none" xmlns="http://www.w3.org/2000/svg">
<path d="M5.5 21.5C5.5 23.6176 5.92678 25.7144 6.75599 27.6708C7.58519 29.6271 8.80057 31.4048 10.3327 32.9021C11.8649 34.3994 13.6839 35.5872 15.6857 36.3976C17.6876 37.2079 19.8332 37.625 22 37.625C24.1668 37.625 26.3124 37.2079 28.3143 36.3976C30.3161 35.5872 32.1351 34.3994 33.6673 32.9021C35.1994 31.4048 36.4148 29.6271 37.244 27.6708C38.0732 25.7144 38.5 23.6176 38.5 21.5C38.5 19.3824 38.0732 17.2856 37.244 15.3292C36.4148 13.3729 35.1994 11.5952 33.6673 10.0979C32.1351 8.60056 30.3161 7.4128 28.3143 6.60244C26.3124 5.79209 24.1668 5.375 22 5.375C19.8332 5.375 17.6876 5.79209 15.6857 6.60244C13.6839 7.4128 11.8649 8.60056 10.3327 10.0979C8.80057 11.5952 7.58519 13.3729 6.75599 15.3292C5.92678 17.2856 5.5 19.3824 5.5 21.5Z" stroke="#AEAEAE" stroke-width="3" stroke-linecap="round" stroke-linejoin="round"/>
<path d="M22.0007 21.5H15.584" stroke="#AEAEAE" stroke-width="3" stroke-linecap="round" stroke-linejoin="round"/>
<path d="M22 12.5415V21.4998" stroke="#AEAEAE" stroke-width="3" stroke-linecap="round" stroke-linejoin="round"/>
</svg>
