<svg width="34" height="34" viewBox="0 0 34 34" fill="none" xmlns="http://www.w3.org/2000/svg">
<path d="M24.5 5.75H30.125C30.6223 5.75 31.0992 5.94754 31.4508 6.29918C31.8025 6.65081 32 7.12772 32 7.625V28.25C32 29.2446 31.6049 30.1984 30.9016 30.9016C30.1984 31.6049 29.2446 32 28.25 32M28.25 32C27.2554 32 26.3016 31.6049 25.5984 30.9016C24.8951 30.1984 24.5 29.2446 24.5 28.25V3.875C24.5 3.37772 24.3025 2.90081 23.9508 2.54918C23.5992 2.19754 23.1223 2 22.625 2H3.875C3.37772 2 2.90081 2.19754 2.54918 2.54918C2.19754 2.90081 2 3.37772 2 3.875V26.375C2 27.8668 2.59263 29.2976 3.64752 30.3525C4.70242 31.4074 6.13316 32 7.625 32H28.25Z" stroke="#1D1B1B" stroke-width="3" stroke-linecap="round" stroke-linejoin="round"/>
</svg>
